# xmcd
#
# Track frame offsets:
#	150
#	15407
#	33418
#	46220
#	68762
#	89094
#	106564
#	134764
#	151113
#	165323
#	187266
#	205945
#	220486
#	244575
#
# Disc length: 3736 seconds
#
# Revision: 1
# Processed by: cddbd v1.5.1PL0 Copyright (c) Steve Scherf et al.
# Submitted via: audiograbber 1.83.01
#
DISCID=bb0e960e
DTITLE=TZU - Smiling At Strangers
DYEAR=2005
DGENRE=Hip Hop
TTITLE0=Hey OK
TTITLE1=She gets up
TTITLE2=Logical
TTITLE3=Recoil
TTITLE4=TZU Blues (Sweet little hoochie)
TTITLE5=Won't get played
TTITLE6=Coming round
TTITLE7=In front of me
TTITLE8=Back to front
TTITLE9=Reminisce
TTITLE10=Lounge
TTITLE11=Raise 'em up
TTITLE12=Unnecessarily blue
TTITLE13=Unnecessarily blue (remix)
EXTD=
EXTT0=
EXTT1=
EXTT2=
EXTT3=
EXTT4=
EXTT5=
EXTT6=
EXTT7=
EXTT8=
EXTT9=
EXTT10=
EXTT11=
EXTT12=
EXTT13=
PLAYORDER=
